<svg t="1703071342166" class="icon" viewBox="0 0 1024 1024" version="1.1" xmlns="http://www.w3.org/2000/svg" p-id="28790" width="200" height="200"><path d="M512 102.4a409.6 409.6 0 1 0 409.6 409.6 409.6 409.6 0 0 0-409.6-409.6z m181.248 518.144a51.2 51.2 0 0 1-72.704 72.704L512 584.192l-108.544 109.056a51.2 51.2 0 0 1-72.704-72.704L439.808 512 330.752 403.456a51.2 51.2 0 0 1 72.704-72.704L512 439.808l108.544-109.056a51.2 51.2 0 0 1 72.704 72.704L584.192 512z" fill="#808080" p-id="28791"></path></svg>